<svg width="40" height="40" viewBox="0 0 40 40" fill="none" xmlns="http://www.w3.org/2000/svg">
<path d="M13.5 15C13.5 14.337 13.7634 13.7011 14.2322 13.2322C14.7011 12.7634 15.337 12.5 16 12.5C16.663 12.5 17.2989 12.7634 17.7678 13.2322C18.2366 13.7011 18.5 14.337 18.5 15C18.5 15.663 18.2366 16.2989 17.7678 16.7678C17.2989 17.2366 16.663 17.5 16 17.5C15.337 17.5 14.7011 17.2366 14.2322 16.7678C13.7634 16.2989 13.5 15.663 13.5 15ZM16 11C14.9391 11 13.9217 11.4214 13.1716 12.1716C12.4214 12.9217 12 13.9391 12 15C12 16.0609 12.4214 17.0783 13.1716 17.8284C13.9217 18.5786 14.9391 19 16 19C17.0609 19 18.0783 18.5786 18.8284 17.8284C19.5786 17.0783 20 16.0609 20 15C20 13.9391 19.5786 12.9217 18.8284 12.1716C18.0783 11.4214 17.0609 11 16 11ZM23.5 16C23.5 15.6022 23.658 15.2206 23.9393 14.9393C24.2206 14.658 24.6022 14.5 25 14.5C25.3978 14.5 25.7794 14.658 26.0607 14.9393C26.342 15.2206 26.5 15.6022 26.5 16C26.5 16.3978 26.342 16.7794 26.0607 17.0607C25.7794 17.342 25.3978 17.5 25 17.5C24.6022 17.5 24.2206 17.342 23.9393 17.0607C23.658 16.7794 23.5 16.3978 23.5 16ZM25 13C24.2044 13 23.4413 13.3161 22.8787 13.8787C22.3161 14.4413 22 15.2044 22 16C22 16.7956 22.3161 17.5587 22.8787 18.1213C23.4413 18.6839 24.2044 19 25 19C25.7956 19 26.5587 18.6839 27.1213 18.1213C27.6839 17.5587 28 16.7956 28 16C28 15.2044 27.6839 14.4413 27.1213 13.8787C26.5587 13.3161 25.7956 13 25 13ZM22.248 26.038C22.951 26.323 23.852 26.5 25.001 26.5C27.283 26.5 28.587 25.803 29.298 24.942C29.643 24.524 29.818 24.102 29.908 23.779C29.9595 23.5919 29.9907 23.3998 30.001 23.206V23.179C30.0007 22.6012 29.7711 22.0471 29.3625 21.6385C28.9539 21.2299 28.3998 21.0003 27.822 21H22.18C22.152 21 22.1247 21.0007 22.098 21.002C22.492 21.412 22.778 21.927 22.914 22.5H27.822C28.194 22.5 28.496 22.799 28.501 23.169L28.498 23.201C28.494 23.2397 28.4817 23.2997 28.461 23.381C28.3992 23.6034 28.2901 23.8098 28.141 23.986C27.791 24.412 26.969 25 25.001 25C24.021 25 23.325 24.854 22.831 24.655C22.723 25.055 22.545 25.538 22.248 26.038ZM12.25 21C11.6533 21 11.081 21.2371 10.659 21.659C10.2371 22.081 10 22.6533 10 23.25V23.528C10.001 23.5975 10.0057 23.667 10.014 23.736C10.0971 24.48 10.3645 25.1915 10.792 25.806C11.61 26.974 13.172 28 16 28C18.828 28 20.39 26.975 21.208 25.805C21.6355 25.1905 21.9029 24.479 21.986 23.735C21.9931 23.6662 21.9977 23.5971 22 23.528V23.25C22 22.6533 21.7629 22.081 21.341 21.659C20.919 21.2371 20.3467 21 19.75 21H12.25ZM11.5 23.507V23.25C11.5 23.0511 11.579 22.8603 11.7197 22.7197C11.8603 22.579 12.0511 22.5 12.25 22.5H19.75C19.9489 22.5 20.1397 22.579 20.2803 22.7197C20.421 22.8603 20.5 23.0511 20.5 23.25V23.507L20.493 23.587C20.4355 24.0749 20.2589 24.5413 19.979 24.945C19.486 25.65 18.422 26.5 16 26.5C13.578 26.5 12.514 25.65 12.02 24.945C11.7404 24.5412 11.5642 24.0748 11.507 23.587L11.5 23.507Z" fill="#20232C"/>
</svg>
