<svg width="40" height="40" viewBox="0 0 40 40" fill="none" xmlns="http://www.w3.org/2000/svg">
<path d="M17.3751 18.9153C17.4892 18.8495 17.5839 18.7548 17.6497 18.6407C17.7155 18.5267 17.7502 18.3973 17.7501 18.2656V11.5156C17.7495 11.3961 17.7202 11.2784 17.6648 11.1724C17.6094 11.0664 17.5295 10.9752 17.4317 10.9064C17.3339 10.8376 17.2211 10.7932 17.1026 10.7769C16.9842 10.7605 16.8635 10.7727 16.7508 10.8125C14.5617 11.5873 12.7207 13.1175 11.5589 15.1281C10.3971 17.1387 9.9905 19.4977 10.4123 21.7813C10.4342 21.8993 10.4841 22.0104 10.5578 22.1052C10.6316 22.2 10.727 22.2757 10.8361 22.3259C10.9344 22.3719 11.0416 22.3956 11.1501 22.3953C11.2818 22.3954 11.4111 22.3608 11.5251 22.295L17.3751 18.9153ZM16.2501 12.6519V17.8325L11.7614 20.4228C11.7501 20.2812 11.7501 20.1388 11.7501 20C11.7515 18.4797 12.1723 16.9893 12.9663 15.6928C13.7602 14.3963 14.8966 13.344 16.2501 12.6519ZM29.7501 20C29.7509 22.1404 29.0473 24.2216 27.7478 25.9225C26.4484 27.6234 24.6254 28.8493 22.56 29.4113C20.4947 29.9733 18.3018 29.84 16.3197 29.0321C14.3376 28.2241 12.6765 26.7863 11.5926 24.9406C11.5421 24.8554 11.509 24.761 11.4952 24.6628C11.4813 24.5647 11.4871 24.4648 11.5121 24.3689C11.5371 24.273 11.5809 24.183 11.6409 24.1041C11.7009 24.0253 11.776 23.9591 11.8617 23.9094L19.2501 19.6091V11C19.2501 10.8011 19.3292 10.6103 19.4698 10.4697C19.6105 10.329 19.8012 10.25 20.0001 10.25C21.7016 10.2509 23.3732 10.6968 24.849 11.5434C26.3249 12.39 27.5536 13.6079 28.4133 15.0763C28.4236 15.0913 28.433 15.1063 28.4423 15.1222C28.4517 15.1381 28.4611 15.1569 28.4695 15.1737C29.3108 16.643 29.7523 18.307 29.7501 20Z" fill="#20232C"/>
</svg>
