<svg width="40" height="40" viewBox="0 0 40 40" fill="none" xmlns="http://www.w3.org/2000/svg">
<path d="M11 20C11 21.78 11.5278 23.5201 12.5168 25.0001C13.5057 26.4802 14.9113 27.6337 16.5558 28.3149C18.2004 28.9961 20.01 29.1743 21.7558 28.8271C23.5016 28.4798 25.1053 27.6226 26.364 26.364C27.6226 25.1053 28.4798 23.5016 28.8271 21.7558C29.1743 20.01 28.9961 18.2004 28.3149 16.5558C27.6337 14.9113 26.4802 13.5057 25.0001 12.5168C23.5201 11.5278 21.78 11 20 11C17.484 11.0095 15.069 11.9912 13.26 13.74L11 16" stroke="#20232C" stroke-width="2" stroke-linecap="round" stroke-linejoin="round"/>
<path d="M11 11V16H16M20 15V20L24 22" stroke="#20232C" stroke-width="2" stroke-linecap="round" stroke-linejoin="round"/>
</svg>
