<svg width="40" height="40" viewBox="0 0 40 40" fill="none" xmlns="http://www.w3.org/2000/svg">
<path d="M24.434 10C24.752 10.0001 25.0653 10.0759 25.3481 10.2213C25.6309 10.3667 25.8749 10.5774 26.06 10.836L26.149 10.971L28.573 15.011C28.8119 15.4094 28.955 15.8579 28.991 16.321L29 16.554V26C29.0002 26.5046 28.8096 26.9906 28.4665 27.3605C28.1234 27.7305 27.6532 27.9572 27.15 27.995L27 28H13C12.4954 28.0002 12.0094 27.8096 11.6395 27.4665C11.2695 27.1234 11.0428 26.6532 11.005 26.15L11 26V16.554C11 16.0889 11.1082 15.6301 11.316 15.214L11.428 15.01L13.85 10.971C14.0136 10.6981 14.2399 10.4683 14.5102 10.3004C14.7805 10.1326 15.0869 10.0317 15.404 10.006L15.566 10H24.434ZM27 17H13V26H27V17ZM19 12H15.566L13.766 15H19V12ZM24.434 12H21V15H26.234L24.434 12Z" fill="#20232C"/>
</svg>
