<svg width="40" height="40" viewBox="0 0 40 40" fill="none" xmlns="http://www.w3.org/2000/svg">
<path d="M15.5 11.75V28.25H12.5C12.3011 28.25 12.1103 28.171 11.9697 28.0303C11.829 27.8897 11.75 27.6989 11.75 27.5V12.5C11.75 12.3011 11.829 12.1103 11.9697 11.9697C12.1103 11.829 12.3011 11.75 12.5 11.75H15.5Z" fill="black" fill-opacity="0.05"/>
<path d="M25.25 18.5C25.25 18.6989 25.171 18.8897 25.0303 19.0303C24.8897 19.171 24.6989 19.25 24.5 19.25H18.5C18.3011 19.25 18.1103 19.171 17.9697 19.0303C17.829 18.8897 17.75 18.6989 17.75 18.5C17.75 18.3011 17.829 18.1103 17.9697 17.9697C18.1103 17.829 18.3011 17.75 18.5 17.75H24.5C24.6989 17.75 24.8897 17.829 25.0303 17.9697C25.171 18.1103 25.25 18.3011 25.25 18.5ZM24.5 20.75H18.5C18.3011 20.75 18.1103 20.829 17.9697 20.9697C17.829 21.1103 17.75 21.3011 17.75 21.5C17.75 21.6989 17.829 21.8897 17.9697 22.0303C18.1103 22.171 18.3011 22.25 18.5 22.25H24.5C24.6989 22.25 24.8897 22.171 25.0303 22.0303C25.171 21.8897 25.25 21.6989 25.25 21.5C25.25 21.3011 25.171 21.1103 25.0303 20.9697C24.8897 20.829 24.6989 20.75 24.5 20.75ZM29 12.5V27.5C29 27.8978 28.842 28.2794 28.5607 28.5607C28.2794 28.842 27.8978 29 27.5 29H12.5C12.1022 29 11.7206 28.842 11.4393 28.5607C11.158 28.2794 11 27.8978 11 27.5V12.5C11 12.1022 11.158 11.7206 11.4393 11.4393C11.7206 11.158 12.1022 11 12.5 11H27.5C27.8978 11 28.2794 11.158 28.5607 11.4393C28.842 11.7206 29 12.1022 29 12.5ZM12.5 27.5H14.75V12.5H12.5V27.5ZM27.5 27.5V12.5H16.25V27.5H27.5Z" fill="#20232C"/>
</svg>
