<svg width="67" height="67" viewBox="0 0 67 67" fill="none" xmlns="http://www.w3.org/2000/svg">
<path opacity="0.21" fill-rule="evenodd" clip-rule="evenodd" d="M0.517578 33.7087V43.7795C0.517578 56.4821 10.815 66.7795 23.5176 66.7795H33.6547H43.7917C56.4943 66.7795 66.7917 56.4821 66.7917 43.7795V33.7087V23.6378C66.7917 10.9352 56.4943 0.637787 43.7917 0.637787H33.6547H23.5176C10.815 0.637787 0.517578 10.9352 0.517578 23.6378V33.7087Z" fill="#4AD991"/>
<path d="M21.6278 45.7123H47.4011C48.3501 45.7123 49.1194 46.48 49.1194 47.4271C49.1194 48.3741 48.3501 49.1418 47.4011 49.1418H19.9096C18.9607 49.1418 18.1914 48.3741 18.1914 47.4271V19.9905C18.1914 19.0434 18.9607 18.2757 19.9096 18.2757C20.8586 18.2757 21.6278 19.0434 21.6278 19.9905V45.7123Z" fill="#4AD991"/>
<path opacity="0.5" d="M28.0362 38.3111C27.3872 39.002 26.2998 39.037 25.6075 38.3892C24.9152 37.7415 24.8801 36.6563 25.5292 35.9654L31.9725 29.1063C32.6002 28.4381 33.6432 28.3802 34.3413 28.9747L39.4268 33.3056L46.0527 24.9296C46.6407 24.1863 47.7212 24.0594 48.466 24.6462C49.2108 25.2331 49.3379 26.3114 48.7499 27.0547L41.0179 36.829C40.414 37.5924 39.2954 37.7022 38.554 37.0708L33.358 32.6458L28.0362 38.3111Z" fill="#4AD991"/>
</svg>
