<svg width="40" height="40" viewBox="0 0 40 40" fill="none" xmlns="http://www.w3.org/2000/svg">
<path fill-rule="evenodd" clip-rule="evenodd" d="M16.7502 14C16.3891 14 16.0315 14.0711 15.6978 14.2093C15.3642 14.3475 15.061 14.5501 14.8057 14.8055C14.5503 15.0608 14.3477 15.364 14.2095 15.6976C14.0713 16.0313 14.0002 16.3889 14.0002 16.75C14.0002 17.1111 14.0713 17.4687 14.2095 17.8024C14.3477 18.136 14.5503 18.4392 14.8057 18.6945C15.061 18.9499 15.3642 19.1525 15.6978 19.2907C16.0315 19.4289 16.3891 19.5 16.7502 19.5C17.4795 19.5 18.179 19.2103 18.6947 18.6945C19.2105 18.1788 19.5002 17.4793 19.5002 16.75C19.5002 16.0207 19.2105 15.3212 18.6947 14.8055C18.179 14.2897 17.4795 14 16.7502 14ZM15.5002 16.75C15.5002 16.4185 15.6319 16.1005 15.8663 15.8661C16.1007 15.6317 16.4187 15.5 16.7502 15.5C17.0817 15.5 17.3997 15.6317 17.6341 15.8661C17.8685 16.1005 18.0002 16.4185 18.0002 16.75C18.0002 17.0815 17.8685 17.3995 17.6341 17.6339C17.3997 17.8683 17.0817 18 16.7502 18C16.4187 18 16.1007 17.8683 15.8663 17.6339C15.6319 17.3995 15.5002 17.0815 15.5002 16.75ZM16.7502 20C15.5542 20 14.4352 20.24 13.5862 20.665C12.7832 21.067 12.0002 21.761 12.0002 22.75V22.813C11.9982 23.323 11.9962 24.183 12.8102 24.772C13.1882 25.045 13.6872 25.22 14.3052 25.331C14.9282 25.443 15.7272 25.5 16.7502 25.5C17.7732 25.5 18.5722 25.443 19.1952 25.331C19.8132 25.22 20.3122 25.045 20.6902 24.771C21.5042 24.182 21.5022 23.323 21.5002 22.812V22.75C21.5002 21.76 20.7172 21.067 19.9142 20.665C19.0652 20.241 17.9462 20 16.7502 20ZM13.5002 22.75C13.5002 22.635 13.6132 22.329 14.2572 22.007C14.8572 21.707 15.7372 21.5 16.7502 21.5C17.7632 21.5 18.6442 21.707 19.2432 22.007C19.8872 22.329 20.0002 22.635 20.0002 22.75C20.0002 23.354 19.9612 23.447 19.8102 23.557C19.6882 23.645 19.4372 23.763 18.9302 23.855C18.4282 23.945 17.7272 24 16.7502 24C15.7732 24 15.0722 23.945 14.5702 23.855C14.0632 23.763 13.8122 23.645 13.6902 23.557C13.5382 23.447 13.5002 23.354 13.5002 22.75Z" fill="#20232C"/>
<path d="M26.75 20.5C26.9489 20.5 27.1397 20.421 27.2803 20.2803C27.421 20.1397 27.5 19.9489 27.5 19.75C27.5 19.5511 27.421 19.3603 27.2803 19.2197C27.1397 19.079 26.9489 19 26.75 19H22.75C22.5511 19 22.3603 19.079 22.2197 19.2197C22.079 19.3603 22 19.5511 22 19.75C22 19.9489 22.079 20.1397 22.2197 20.2803C22.3603 20.421 22.5511 20.5 22.75 20.5H26.75ZM27.5 16.75C27.5 16.9489 27.421 17.1397 27.2803 17.2803C27.1397 17.421 26.9489 17.5 26.75 17.5H21.75C21.5511 17.5 21.3603 17.421 21.2197 17.2803C21.079 17.1397 21 16.9489 21 16.75C21 16.5511 21.079 16.3603 21.2197 16.2197C21.3603 16.079 21.5511 16 21.75 16H26.75C26.9489 16 27.1397 16.079 27.2803 16.2197C27.421 16.3603 27.5 16.5511 27.5 16.75ZM26.75 23.5C26.9489 23.5 27.1397 23.421 27.2803 23.2803C27.421 23.1397 27.5 22.9489 27.5 22.75C27.5 22.5511 27.421 22.3603 27.2803 22.2197C27.1397 22.079 26.9489 22 26.75 22H23.75C23.5511 22 23.3603 22.079 23.2197 22.2197C23.079 22.3603 23 22.5511 23 22.75C23 22.9489 23.079 23.1397 23.2197 23.2803C23.3603 23.421 23.5511 23.5 23.75 23.5H26.75Z" fill="#20232C"/>
<path fill-rule="evenodd" clip-rule="evenodd" d="M17.693 11H21.805C23.643 11 25.099 11 26.238 11.153C27.41 11.311 28.359 11.643 29.108 12.391C29.856 13.14 30.188 14.089 30.346 15.261C30.499 16.401 30.499 17.856 30.499 19.694V19.806C30.499 21.644 30.499 23.1 30.346 24.239C30.188 25.411 29.856 26.36 29.108 27.109C28.359 27.857 27.41 28.189 26.238 28.347C25.098 28.5 23.643 28.5 21.805 28.5H17.694C15.856 28.5 14.4 28.5 13.261 28.347C12.089 28.189 11.14 27.857 10.391 27.109C9.643 26.36 9.311 25.411 9.153 24.239C9 23.099 9 21.644 9 19.806V19.694C9 17.856 9 16.4 9.153 15.261C9.311 14.089 9.643 13.14 10.391 12.391C11.14 11.643 12.089 11.311 13.261 11.153C14.401 11 15.855 11 17.693 11ZM13.459 12.64C12.453 12.775 11.873 13.029 11.449 13.452C11.027 13.875 10.773 14.455 10.638 15.461C10.5 16.489 10.498 17.843 10.498 19.75C10.498 21.657 10.5 23.012 10.638 24.04C10.773 25.045 11.027 25.625 11.45 26.048C11.873 26.471 12.453 26.725 13.459 26.86C14.487 26.998 15.841 27 17.748 27H21.748C23.655 27 25.01 26.998 26.038 26.86C27.043 26.725 27.623 26.471 28.046 26.048C28.469 25.625 28.723 25.045 28.858 24.039C28.996 23.011 28.998 21.657 28.998 19.75C28.998 17.843 28.996 16.489 28.858 15.46C28.723 14.455 28.469 13.875 28.046 13.452C27.623 13.029 27.043 12.775 26.037 12.64C25.01 12.502 23.655 12.5 21.748 12.5H17.748C15.841 12.5 14.488 12.502 13.459 12.64Z" fill="#20232C"/>
</svg>
