<svg width="68" height="67" viewBox="0 0 68 67" fill="none" xmlns="http://www.w3.org/2000/svg">
<path opacity="0.21" fill-rule="evenodd" clip-rule="evenodd" d="M0.984375 33.7087V43.7795C0.984375 56.4821 11.2818 66.7795 23.9844 66.7795H34.1215H44.2585C56.9611 66.7795 67.2585 56.4821 67.2585 43.7795V33.7087V23.6378C67.2585 10.9352 56.9611 0.637787 44.2585 0.637787H34.1215H23.9844C11.2818 0.637787 0.984375 10.9352 0.984375 23.6378V33.7087Z" fill="#F4AC01"/>
<path fill-rule="evenodd" clip-rule="evenodd" d="M17.5527 27.4434L31.8022 35.6539C31.9557 35.7423 32.1166 35.8061 32.2803 35.8467V51.7706L18.569 43.6724C17.9391 43.3003 17.5527 42.6241 17.5527 41.8936V27.4434ZM50.6899 27.2251V41.8936C50.6899 42.6241 50.3035 43.3003 49.6736 43.6724L35.9623 51.7706V35.7072C35.9957 35.6905 36.0288 35.6728 36.0616 35.6539L50.6899 27.2251Z" fill="#F4AC01"/>
<path opacity="0.499209" fill-rule="evenodd" clip-rule="evenodd" d="M18 23.4584C18.1741 23.239 18.3937 23.0536 18.6499 22.9175L33.1473 15.2112C33.7559 14.8877 34.486 14.8877 35.0946 15.2112L49.592 22.9175C49.7895 23.0224 49.9652 23.1566 50.1152 23.3131L34.2202 32.4717C34.1157 32.5319 34.0194 32.6008 33.9315 32.677C33.8437 32.6008 33.7474 32.5319 33.6428 32.4717L18 23.4584Z" fill="#F4AC01"/>
</svg>
