<svg width="40" height="40" viewBox="0 0 40 40" fill="none" xmlns="http://www.w3.org/2000/svg">
<path d="M25.75 14.5H23.75V13.75C23.75 12.79 22.96 12 22 12H12.75C11.79 12 11 12.79 11 13.75V22.75C11 23.71 11.79 24.5 12.75 24.5H13.03C13.16 26.17 14.55 27.5 16.25 27.5C17.95 27.5 19.34 26.17 19.47 24.5H21.02C21.15 26.17 22.54 27.5 24.24 27.5C25.94 27.5 27.33 26.17 27.46 24.5H27.74C28.7 24.5 29.49 23.71 29.49 22.75V18.25C29.49 16.18 27.81 14.5 25.74 14.5H25.75ZM12.5 22.75V13.75C12.5 13.61 12.61 13.5 12.75 13.5H22C22.14 13.5 22.25 13.61 22.25 13.75V21.69C22.25 21.69 22.2 21.75 22.17 21.77C22.02 21.9 21.88 22.04 21.75 22.19C21.71 22.24 21.67 22.28 21.64 22.33C21.4858 22.533 21.3581 22.7548 21.26 22.99H19.26V22.98C19.1855 22.8086 19.0951 22.6446 18.99 22.49C18.96 22.45 18.93 22.41 18.9 22.36C18.82 22.24 18.73 22.14 18.63 22.03C18.59 21.99 18.56 21.95 18.52 21.91C18.39 21.79 18.26 21.68 18.12 21.58C18.1 21.57 18.09 21.55 18.07 21.54C17.92 21.44 17.76 21.36 17.6 21.28C17.54 21.25 17.48 21.23 17.42 21.21C17.29 21.16 17.17 21.12 17.04 21.09C16.98 21.08 16.92 21.06 16.86 21.05C16.4708 20.9691 16.0692 20.9691 15.68 21.05C15.62 21.06 15.56 21.08 15.5 21.09C15.37 21.12 15.24 21.16 15.12 21.21C15.06 21.23 15 21.25 14.94 21.28C14.78 21.35 14.62 21.44 14.47 21.54C14.45 21.55 14.44 21.56 14.42 21.58C14.28 21.68 14.14 21.79 14.02 21.91C13.98 21.95 13.94 21.99 13.91 22.03C13.81 22.13 13.72 22.24 13.64 22.36C13.61 22.4 13.58 22.44 13.55 22.49C13.45 22.65 13.36 22.81 13.28 22.98V22.99H12.78C12.64 22.99 12.53 22.88 12.53 22.74L12.5 22.75ZM16.25 26C15.29 26 14.5 25.21 14.5 24.25C14.5037 23.9505 14.5865 23.6572 14.74 23.4C14.75 23.37 14.77 23.35 14.78 23.32C14.87 23.18 14.98 23.05 15.11 22.94C15.14 22.92 15.16 22.9 15.19 22.88C15.32 22.78 15.47 22.69 15.63 22.63C15.65 22.63 15.68 22.61 15.71 22.61C15.88 22.55 16.07 22.51 16.26 22.51C16.45 22.51 16.63 22.55 16.81 22.61C16.84 22.61 16.86 22.62 16.89 22.63C17.05 22.69 17.2 22.78 17.33 22.88C17.36 22.9 17.38 22.92 17.41 22.94C17.54 23.05 17.65 23.18 17.74 23.32C17.76 23.34 17.77 23.37 17.78 23.4C17.87 23.56 17.94 23.72 17.98 23.9C18 24.01 18.02 24.13 18.02 24.25C18.02 25.21 17.23 26 16.27 26H16.25ZM24.25 26C23.29 26 22.5 25.21 22.5 24.25C22.5 24.13 22.51 24.01 22.54 23.9C22.57 23.78 22.6 23.66 22.65 23.55V23.53C22.7 23.43 22.75 23.33 22.82 23.24C22.83 23.22 22.85 23.21 22.86 23.19C22.9179 23.1122 22.9814 23.0386 23.05 22.97C23.07 22.95 23.09 22.94 23.11 22.92C23.18 22.86 23.26 22.8 23.34 22.75C23.36 22.74 23.39 22.72 23.42 22.71C23.51 22.66 23.61 22.62 23.71 22.59C23.75 22.58 23.79 22.56 23.84 22.55C23.97 22.52 24.11 22.5 24.25 22.5C24.44 22.5 24.62 22.54 24.8 22.6C24.83 22.6 24.85 22.61 24.88 22.62C25.04 22.68 25.19 22.77 25.32 22.87C25.35 22.89 25.37 22.91 25.4 22.93C25.53 23.04 25.64 23.17 25.73 23.31C25.75 23.33 25.76 23.36 25.77 23.39C25.86 23.55 25.93 23.71 25.97 23.89C25.99 24 26.01 24.12 26.01 24.24C26.01 25.2 25.22 25.99 24.26 25.99L24.25 26ZM23.75 19V16H25.75C26.99 16 28 17.01 28 18.25V19H23.75Z" fill="#20232C"/>
</svg>
